<?xml version="1.0" encoding="utf-8"?>
<!-- Generator: Adobe Illustrator 19.0.0, SVG Export Plug-In . SVG Version: 6.00 Build 0)  -->
<svg version="1.1" id="Isolation_Mode" xmlns="http://www.w3.org/2000/svg" xmlns:xlink="http://www.w3.org/1999/xlink" x="0px"
	 y="0px" viewBox="0 0 31.6 35.6" style="enable-background:new 0 0 31.6 35.6;" xml:space="preserve">
<style type="text/css">
	.st0{fill:#1C8BCC;}
</style>
<g id="ItWOoM_1_">
	<g>
		<path class="st0" d="M4,0c5.8,0,11.6,0,17.4,0c0.2,0.2,0.4,0.3,0.5,0.5c2.2,2.5,4.3,5,6.5,7.4c0.2,0.3,0.3,0.5,0.3,0.9
			c0,1.2,0,2.4,0,3.5c0,0.1,0,0.2,0,0.4c0.2,0,0.4,0,0.6,0c1.4,0,2.2,0.8,2.2,2.2c0,3.3,0,6.7,0,10c0,1.4-0.8,2.2-2.2,2.2
			c-0.2,0-0.4,0-0.7,0c0,0.2,0,0.3,0,0.5c0,2.1,0,4.2,0,6.4c0,1.1-0.5,1.7-1.7,1.7c-7.5,0-15,0-22.5,0c-1.1,0-1.7-0.5-1.7-1.7
			c0-2.1,0-4.3,0-6.4c0-0.1,0-0.3,0-0.4c-0.3,0-0.5,0-0.7,0c-1.2,0-2.1-0.8-2.1-2.1c0-3.4,0-6.8,0-10.2c0-1.3,0.9-2.1,2.1-2.1
			c0.2,0,0.5,0,0.7,0c0-0.2,0-0.3,0-0.4c0-3.5,0-7,0-10.5C2.8,1,3.1,0.3,4,0z M27.3,9.3c-0.2,0-0.3,0-0.4,0c-1.8,0-3.7,0-5.5,0
			c-0.7,0-0.9-0.2-0.9-0.9c0-2.2,0-4.3,0-6.5c0-0.1,0-0.2,0-0.4c-5.4,0-10.8,0-16.2,0c0,3.8,0,7.5,0,11.3c7.7,0,15.4,0,23,0
			C27.3,11.6,27.3,10.4,27.3,9.3z M4.3,27.1c0,2.3,0,4.5,0,6.7c0.1,0,0.2,0,0.3,0c7.4,0,14.9,0,22.3,0c0.3,0,0.4-0.1,0.4-0.4
			c0-2,0-4,0-6c0-0.1,0-0.2,0-0.3C19.6,27.1,12,27.1,4.3,27.1z M29.3,15.7c-0.7,0-1.3,0-2,0c-0.1,0-0.2,0.1-0.2,0.2
			c-0.3,0.8-0.7,1.5-1,2.3c0,0.1-0.1,0.2-0.1,0.3c-0.1-0.2-0.1-0.3-0.2-0.4c-0.3-0.7-0.7-1.5-1.1-2.2c0-0.1-0.1-0.2-0.2-0.2
			c-0.7,0-1.3,0-2,0c0.1,0.2,0.1,0.3,0.2,0.4c0.6,1.1,1.2,2.2,1.9,3.3c0.2,0.3,0.2,0.5,0,0.8c-0.7,1.1-1.3,2.3-2,3.4
			c-0.1,0.1-0.1,0.2-0.2,0.4c0.6,0,1.2,0,1.7,0c0.3,0,0.4-0.1,0.5-0.3c0.4-0.9,0.8-1.7,1.2-2.6c0.1,0.1,0.1,0.2,0.2,0.4
			c0.4,0.8,0.8,1.6,1.2,2.4c0.1,0.1,0.2,0.2,0.2,0.2c0.7,0,1.3,0,2,0c-0.1-0.2-0.2-0.3-0.2-0.4c-0.7-1.2-1.4-2.4-2.1-3.5
			c-0.1-0.2-0.1-0.4,0-0.6c0.7-1.1,1.3-2.3,2-3.4C29.2,15.9,29.3,15.8,29.3,15.7z M2.1,15.7c0.1,0.2,0.1,0.3,0.2,0.4
			c0.6,1.1,1.3,2.3,1.9,3.4c0.1,0.2,0.1,0.4,0,0.6c-0.7,1.2-1.4,2.3-2,3.5c-0.1,0.1-0.1,0.2-0.2,0.4c0.7,0,1.3,0,1.9,0
			c0.1,0,0.2-0.1,0.3-0.2c0.4-0.8,0.7-1.6,1.1-2.4c0-0.1,0.1-0.2,0.2-0.4c0.5,1,0.9,1.8,1.4,2.7c0.1,0.1,0.2,0.2,0.2,0.2
			c0.7,0,1.3,0,2,0c-0.1-0.2-0.1-0.3-0.2-0.4c-0.7-1.2-1.4-2.4-2.1-3.6c-0.1-0.2-0.1-0.4,0-0.6c0.7-1.1,1.3-2.3,2-3.4
			c0.1-0.1,0.1-0.2,0.2-0.4c-0.7,0-1.3,0-1.9,0c-0.1,0-0.2,0.1-0.3,0.2C6.5,16.4,6.2,17,6,17.6c-0.1,0.3-0.3,0.6-0.4,1
			c-0.1-0.2-0.1-0.3-0.2-0.4c-0.4-0.8-0.7-1.5-1.1-2.3c0-0.1-0.1-0.2-0.2-0.2C3.4,15.7,2.8,15.7,2.1,15.7z M16.4,22
			c-0.1,0.4-0.2,0.8-0.3,1.3c-0.1,0.2,0,0.3,0.2,0.4c1.2,0.4,2.4,0.5,3.5,0.2c1.4-0.4,2.1-1.7,1.8-3c-0.2-0.8-0.9-1.3-1.6-1.6
			c-0.5-0.2-1-0.4-1.5-0.7c-0.3-0.1-0.5-0.4-0.5-0.7c0-0.4,0.3-0.6,0.6-0.6c0.4-0.1,0.7-0.1,1.1,0c0.4,0,0.8,0.2,1.2,0.3
			c0.1-0.5,0.3-1,0.4-1.4c-1.1-0.6-3-0.6-4,0c-1.2,0.7-1.6,2.1-0.9,3.2c0.4,0.6,1,0.9,1.6,1.2c0.4,0.2,0.9,0.4,1.3,0.6
			c0.3,0.1,0.4,0.4,0.4,0.8c0,0.3-0.2,0.6-0.5,0.7c-0.2,0.1-0.3,0.1-0.5,0.1C17.9,22.6,17.2,22.4,16.4,22z M12,22.4
			c0-2.3,0-4.5,0-6.7c-0.6,0-1.2,0-1.8,0c0,2.8,0,5.5,0,8.2c1.7,0,3.4,0,5.1,0c0-0.5,0-1,0-1.6C14.1,22.4,13.1,22.4,12,22.4z"/>
	</g>
</g>
</svg>
