<?xml version="1.0" encoding="utf-8"?>
<!-- Generator: Adobe Illustrator 19.0.0, SVG Export Plug-In . SVG Version: 6.00 Build 0)  -->
<svg version="1.1" id="Layer_1" xmlns="http://www.w3.org/2000/svg" xmlns:xlink="http://www.w3.org/1999/xlink" x="0px" y="0px"
	 viewBox="0 0 31.2 33.9" style="enable-background:new 0 0 31.2 33.9;" xml:space="preserve">
<style type="text/css">
	.st0{fill:#188ACB;}
</style>
<g id="rR1FJt_1_">
	<g>
		<path class="st0" d="M0,23.8c0-2.8,0-5.6,0-8.4c0.3-0.8,0.9-1,1.7-1c1.1,0,2.3,0,3.5,0c0-0.4,0-0.6,0-0.9c0-2.6,0-5.2,0-7.8
			c0-0.5,0-1,0.1-1.4C5.9,1.7,7.9,0,10.7,0c3.1,0,6.3,0,9.4,0c1.2,0,2.3,0.3,3.1,1.2c2.3,2.3,4.6,4.6,6.9,6.9
			c0.7,0.7,1.1,1.6,1.1,2.6c0,6,0,11.9,0,17.9c0,2.3-1.3,4.1-3.3,4.9c-0.4,0.1-0.7,0.2-1.1,0.4c-5.7,0-11.3,0-17,0
			c-3.3-0.7-4.8-3-4.6-6.3c0.1-0.9,0-1.8,0-2.8c-1.2,0-2.4,0-3.5,0C0.9,24.8,0.4,24.5,0,23.8z M7.8,24.7c0,1.2,0,2.3,0,3.4
			c0,2.1,1,3.1,3.1,3.1c4.8,0,9.7,0,14.5,0c2.2,0,3.2-1,3.2-3.2c0-5.2,0-10.5,0-15.7c0-1.5-0.4-1.9-2-2c-1.4,0-2.8,0-4.1,0
			c-1.3,0-1.7-0.4-1.7-1.7c0-1.6,0-3.3-0.1-4.9c-0.1-0.9-0.5-1.2-1.4-1.2c-2.9,0-5.7,0-8.6,0c-1.9,0-3,1-3,3c0,2.7,0,5.4,0,8
			c0,0.2,0,0.4,0,0.7c0.3,0,0.6,0,0.9,0c4.8,0,9.5,0,14.3,0c1.3,0,1.7,0.4,1.7,1.7c0,2.3,0,4.6,0,6.9c0,1.4-0.4,1.7-1.7,1.7
			c-4.7,0-9.5,0-14.2,0C8.5,24.7,8.2,24.7,7.8,24.7z M19.4,18.7c0.1,0,0.1,0,0.2,0c0.5,0.9,1.1,1.7,1.6,2.6c0.6,1,0.8,1,1.9,0.7
			c0-1.8,0-3.6,0-5.4c-0.5,0-0.8,0-1.3,0c0,0.9,0,1.9,0,2.8c-0.5-0.6-0.9-1.2-1.3-1.8c-0.7-1.1-1-1.2-2.4-0.9c0,1.8,0,3.6,0,5.4
			c0.4,0,0.8,0,1.3,0C19.4,21,19.4,19.9,19.4,18.7z M17,19.4c0-1.8-1.1-2.9-2.9-2.9c-1.8,0-2.9,1.1-2.9,2.9c0,1.8,1.1,2.9,2.9,2.9
			C16,22.3,17,21.2,17,19.4z M10.4,18c0.2-1.2,0.1-1.3-1.1-1.5c-0.4,0-0.7-0.1-1.1-0.1c-1.3,0.1-2.2,0.8-2.3,1.7
			c-0.1,1,0.5,1.6,2,1.9c0.4,0.1,1.3,0,1.1,0.7c-0.1,0.7-0.9,0.5-1.4,0.4C7,21,6.5,20.7,5.7,20.5c0.1,0.6,0.1,1.3,0.4,1.4
			c1.2,0.5,2.5,0.6,3.7,0c0.6-0.3,0.9-0.9,0.9-1.6c-0.1-0.7-0.5-1.1-1.2-1.3c-0.5-0.2-1-0.2-1.4-0.4c-0.2-0.1-0.4-0.3-0.6-0.5
			c0.2-0.2,0.5-0.5,0.7-0.4C8.9,17.7,9.6,17.9,10.4,18z M3.4,17.7c0,0.7,0,1.3,0,1.9c0,1.5-0.3,1.8-1.8,1.4c0,0-0.1,0-0.1,0
			c-0.2,1.2-0.2,1.2,0.9,1.2c0.4,0,0.9,0,1.3-0.2c0.6-0.2,1.1-0.6,1.1-1.2c0.1-1.4,0-2.8,0-4.3c-0.9,0-1.8,0-2.7,0c0,0.3,0,0.7,0,1
			C2.6,17.7,3,17.7,3.4,17.7z"/>
		<path class="st0" d="M15.5,19.5c-0.1,0.3-0.1,0.8-0.3,1c-0.3,0.3-0.7,0.6-1.1,0.6c-0.3,0-0.9-0.4-1-0.7c-0.2-0.6-0.2-1.2-0.1-1.8
			c0.1-0.6,0.5-1,1.2-1c0.7,0,1.1,0.4,1.2,1C15.4,18.9,15.5,19.1,15.5,19.5z"/>
	</g>
</g>
</svg>
