<?xml version="1.0" encoding="utf-8"?>
<!-- Generator: Adobe Illustrator 19.0.0, SVG Export Plug-In . SVG Version: 6.00 Build 0)  -->
<svg version="1.1" id="Layer_1" xmlns="http://www.w3.org/2000/svg" xmlns:xlink="http://www.w3.org/1999/xlink" x="0px" y="0px"
	 viewBox="0 0 82.9 91.6" style="enable-background:new 0 0 82.9 91.6;" xml:space="preserve">
<style type="text/css">
	.st0{fill:#FFFFFF;}
	.st1{fill:#188BCC;}
</style>
<g>
	<path class="st0" d="M52.1,13.8L40.3,2c-1.3-1.3-3-2-4.8-2H6.8C3,0,0,3,0,6.8v58.6c0,3.7,3,6.8,6.8,6.8h40.6c3.7,0,6.8-3,6.8-6.8
		V18.6C54.1,16.8,53.4,15.1,52.1,13.8z M46.8,18H36V7.3L46.8,18z M6.8,65.4V6.8h22.5v14.6c0,1.9,1.5,3.4,3.4,3.4h14.6v40.6H6.8z"/>
	<circle class="st0" cx="54.2" cy="62.8" r="28.8"/>
	<g>
		<g>
			<path class="st1" d="M72.8,68.8c-0.4-0.4-1-0.6-1.6-0.6h-9.9c-0.3,0.9-0.9,1.6-1.6,2.1c-0.8,0.6-1.6,0.8-2.6,0.8h-5.9
				c-0.9,0-1.8-0.3-2.6-0.8c-0.8-0.6-1.3-1.3-1.6-2.1h-9.9c-0.6,0-1.1,0.2-1.6,0.6c-0.4,0.4-0.6,1-0.6,1.6v7.4
				c0,0.6,0.2,1.1,0.6,1.6c0.4,0.4,1,0.6,1.6,0.6h34.2c0.6,0,1.1-0.2,1.6-0.6c0.4-0.4,0.6-1,0.6-1.6v-7.4
				C73.5,69.7,73.2,69.2,72.8,68.8z M64.1,76.6c-0.3,0.3-0.6,0.4-1,0.4s-0.8-0.1-1-0.4c-0.3-0.3-0.4-0.6-0.4-1s0.1-0.8,0.4-1
				c0.3-0.3,0.6-0.4,1-0.4c0.4,0,0.8,0.1,1,0.4c0.3,0.3,0.4,0.6,0.4,1S64.4,76.3,64.1,76.6z M70.1,76.6c-0.3,0.3-0.6,0.4-1,0.4
				c-0.4,0-0.8-0.1-1-0.4c-0.3-0.3-0.4-0.6-0.4-1s0.1-0.8,0.4-1c0.3-0.3,0.6-0.4,1-0.4c0.4,0,0.8,0.1,1,0.4c0.3,0.3,0.4,0.6,0.4,1
				S70.3,76.3,70.1,76.6z"/>
			<path class="st1" d="M43.8,56.3h5.9v10.4c0,0.4,0.1,0.8,0.4,1c0.3,0.3,0.6,0.4,1,0.4h5.9c0.4,0,0.8-0.1,1-0.4
				c0.3-0.3,0.4-0.6,0.4-1V56.3h5.9c0.7,0,1.1-0.3,1.4-0.9c0.3-0.6,0.2-1.1-0.3-1.6L55.2,43.3c-0.3-0.3-0.6-0.4-1-0.4
				c-0.4,0-0.8,0.1-1,0.4L42.7,53.7c-0.5,0.5-0.6,1-0.3,1.6C42.7,55.9,43.1,56.3,43.8,56.3z"/>
		</g>
	</g>
</g>
</svg>
