<?xml version="1.0" encoding="utf-8"?>
<!-- Generator: Adobe Illustrator 19.0.0, SVG Export Plug-In . SVG Version: 6.00 Build 0)  -->
<svg version="1.1" id="Layer_1" xmlns="http://www.w3.org/2000/svg" xmlns:xlink="http://www.w3.org/1999/xlink" x="0px" y="0px"
	 viewBox="0 0 83.2 94.1" style="enable-background:new 0 0 83.2 94.1;" xml:space="preserve">
<style type="text/css">
	.st0{fill:#FFFFFF;}
</style>
<g>
	<path class="st0" d="M75.4,42.1H44.2l-8.9-8.9c-1-1-2.3-1.5-3.7-1.5H7.8c-4.3,0-7.8,3.5-7.8,7.8v46.8c0,4.3,3.5,7.8,7.8,7.8h67.6
		c4.3,0,7.8-3.5,7.8-7.8V49.9C83.2,45.6,79.7,42.1,75.4,42.1z M77.2,87.5H6V38.2h24l9.3,9.3c1,1,2.4,1.6,3.9,1.6h34V87.5z"/>
	<path class="st0" d="M41.6,62.7c-0.6,0-1.1,0.1-1.7,0.3c0.3,0.4,0.4,1,0.4,1.5c0,1.7-1.4,3-3,3c-0.5,0-1-0.1-1.5-0.4
		c-0.9,3.2,0.9,6.6,4.2,7.5c3.2,0.9,6.6-0.9,7.5-4.2c0.9-3.2-0.9-6.6-4.2-7.5C42.8,62.8,42.2,62.7,41.6,62.7z M57.1,68
		c-2.9-5.8-8.8-9.6-15.5-9.6S29.1,62.3,26.1,68c-0.3,0.5-0.3,1.1,0,1.6c2.9,5.8,8.8,9.6,15.5,9.6s12.5-3.9,15.5-9.6
		C57.3,69.1,57.3,68.5,57.1,68z M41.6,76.6c-5.4,0-10.3-3-12.9-7.8C31.3,64,36.2,61,41.6,61s10.3,3,12.9,7.8
		C51.9,73.7,47,76.6,41.6,76.6z"/>
	<path class="st0" d="M20,32V7h25v16.1c0,2,0.9,3.9,2.9,3.9H64v15h7V20c0-1.9-0.7-3.8-2.1-5.2L56.1,2.1C54.7,0.7,52.9,0,51,0H19.8
		c-4,0-7.8,3.1-7.8,7.2V32H20z M52,7.8L63.2,19H52V7.8z"/>
</g>
</svg>
