<?xml version="1.0" encoding="utf-8"?>
<!-- Generator: Adobe Illustrator 19.0.0, SVG Export Plug-In . SVG Version: 6.00 Build 0)  -->
<svg version="1.1" id="Layer_1" xmlns="http://www.w3.org/2000/svg" xmlns:xlink="http://www.w3.org/1999/xlink" x="0px" y="0px"
	 viewBox="0 0 112.3 96.6" style="enable-background:new 0 0 112.3 96.6;" xml:space="preserve">
<style type="text/css">
	.st0{fill:#FFFFFF;stroke:#FFFFFF;stroke-width:2.139;stroke-miterlimit:10;}
	.st1{fill:#FFFFFF;stroke:#FFFFFF;stroke-miterlimit:10;}
	.st2{fill:#FFFFFF;}
	.st3{fill:#188BCC;}
	.st4{fill:none;stroke:#188BCC;stroke-width:3.4404;stroke-miterlimit:10;}
</style>
<g>
	<g>
		<path class="st0" d="M76.9,16.2c0-0.1,0-0.3,0-0.4V6.2c0-2.8-2.3-5.1-5.2-5.2H6.1c-2.8,0-5.1,2.3-5.1,5.2v64c0,2.8,2.3,5,5.1,5.1
			h65.6c2.8,0,5.1-2.3,5.2-5.1V16.6C76.9,16.5,76.9,16.4,76.9,16.2z M73.7,6.2v8.4H53.5V4.3h18.3C72.8,4.3,73.7,5.2,73.7,6.2
			L73.7,6.2z M27.8,14.6V4.3h22.5v10.4H27.8z M50.2,17.9V72H27.8V17.9H50.2z M6.1,4.3h18.4v10.4H4.3V6.2C4.3,5.2,5.1,4.3,6.1,4.3z
			 M4.3,70.2V17.9h20.2V72H6.1C5.2,72,4.4,71.2,4.3,70.2z M71.8,72H53.5V17.9h20.2v52.3C73.6,71.2,72.8,72,71.8,72z"/>
		<path class="st1" d="M9.1,28.3h10.3c0.9,0,1.6-0.7,1.6-1.6c0-0.9-0.7-1.6-1.6-1.6H9.1c-0.9,0-1.6,0.7-1.6,1.6
			C7.5,27.6,8.3,28.3,9.1,28.3z"/>
		<path class="st1" d="M19.4,37.1H9.1c-0.9,0-1.6,0.7-1.6,1.6s0.7,1.6,1.6,1.6h10.3c0.9,0,1.6-0.7,1.6-1.6S20.3,37.1,19.4,37.1z"/>
		<path class="st1" d="M19.4,49H9.1c-0.9,0-1.6,0.7-1.6,1.6c0,0.9,0.7,1.6,1.6,1.6h10.3c0.9,0,1.6-0.7,1.6-1.6
			C21,49.7,20.3,49,19.4,49z"/>
		<path class="st1" d="M19.4,61H9.1c-0.9,0-1.6,0.7-1.6,1.6c0,0.9,0.7,1.6,1.6,1.6c0,0,0,0,0,0h10.3c0.9,0,1.6-0.7,1.6-1.6
			C21,61.7,20.3,61,19.4,61z"/>
		<path class="st1" d="M33.8,28.3h10.3c0.9,0,1.6-0.7,1.6-1.6c0-0.9-0.7-1.6-1.6-1.6H33.8c-0.9,0-1.6,0.7-1.6,1.6
			C32.2,27.6,32.9,28.3,33.8,28.3L33.8,28.3z"/>
		<path class="st1" d="M33.8,40.3h10.3c0.9,0,1.6-0.7,1.6-1.6c0-0.9-0.7-1.6-1.6-1.6H33.8c-0.9,0-1.6,0.7-1.6,1.6
			C32.2,39.6,32.9,40.3,33.8,40.3L33.8,40.3z"/>
		<path class="st1" d="M33.8,52.2h10.3c0.9,0,1.6-0.7,1.6-1.6c0-0.9-0.7-1.6-1.6-1.6H33.8c-0.9,0-1.6,0.7-1.6,1.6
			C32.2,51.5,32.9,52.2,33.8,52.2L33.8,52.2z"/>
		<path class="st1" d="M44.1,61H33.8c-0.9,0-1.6,0.7-1.6,1.6c0,0.9,0.7,1.6,1.6,1.6h10.3c0.9,0,1.6-0.7,1.6-1.6
			C45.7,61.7,45,61,44.1,61C44.1,61,44.1,61,44.1,61z"/>
		<path class="st1" d="M68.8,25.1H58.5c-0.9,0-1.6,0.7-1.6,1.6c0,0.9,0.7,1.6,1.6,1.6h10.3c0.9,0,1.6-0.7,1.6-1.6
			C70.4,25.9,69.7,25.1,68.8,25.1z"/>
		<path class="st1" d="M68.8,37.1H58.5c-0.9,0-1.6,0.7-1.6,1.6s0.7,1.6,1.6,1.6h10.3c0.9,0,1.6-0.7,1.6-1.6S69.7,37.1,68.8,37.1z"/>
		<path class="st1" d="M68.8,49H58.5c-0.9,0-1.6,0.7-1.6,1.6c0,0.9,0.7,1.6,1.6,1.6h10.3c0.9,0,1.6-0.7,1.6-1.6
			C70.4,49.7,69.7,49,68.8,49z"/>
		<path class="st1" d="M68.8,61H58.5c-0.9,0-1.6,0.7-1.6,1.6c0,0.9,0.7,1.6,1.6,1.6c0,0,0,0,0,0h10.3c0.9,0,1.6-0.7,1.6-1.6
			C70.4,61.7,69.7,61,68.8,61z"/>
	</g>
	<g>
		<path class="st2" d="M111.3,86.6L96.9,72.3c-0.6-0.6-1.5-1-2.4-1h-2.3c4-5.1,6.3-11.5,6.3-18.4c0-16.6-13.4-30-30-30
			s-30,13.4-30,30s13.4,30,30,30c7,0,13.4-2.4,18.4-6.3v2.3c0,0.9,0.4,1.8,1,2.4l14.4,14.4c1.4,1.4,3.5,1.4,4.9,0l4.1-4.1
			C112.6,90.2,112.6,88,111.3,86.6z"/>
		<path class="st3" d="M54.8,54.7l9.6,8c1,0.9,2.6,0.1,2.6-1.2V45.5c0-1.4-1.6-2.1-2.6-1.2l-9.6,8C54,52.9,54,54.1,54.8,54.7z
			 M67.7,54.7l9.6,8c1,0.9,2.6,0.1,2.6-1.2V45.5c0-1.4-1.6-2.1-2.6-1.2l-9.6,8C66.9,52.9,66.9,54.1,67.7,54.7z"/>
		<circle class="st4" cx="68.7" cy="53.5" r="21.3"/>
	</g>
</g>
</svg>
